<?xml version="1.0" encoding="UTF-8" standalone="no"?>
<svg
   xml:space="preserve"
   enable-background="new 0 0 90 35"
   viewBox="0 0 1920 1080"
   height="1080"
   width="1920"
   y="0px"
   x="0px"
   id="Layer_1"
   version="1.1"
   sodipodi:docname="eduroam-usizo-logo.svg"
   inkscape:version="1.2 (dc2aedaf03, 2022-05-15)"
   inkscape:export-filename="eduroam-usizo-logo.png"
   inkscape:export-xdpi="96"
   inkscape:export-ydpi="96"
   xmlns:inkscape="http://www.inkscape.org/namespaces/inkscape"
   xmlns:sodipodi="http://sodipodi.sourceforge.net/DTD/sodipodi-0.dtd"
   xmlns="http://www.w3.org/2000/svg"
   xmlns:svg="http://www.w3.org/2000/svg"
   xmlns:rdf="http://www.w3.org/1999/02/22-rdf-syntax-ns#"
   xmlns:cc="http://creativecommons.org/ns#"
   xmlns:dc="http://purl.org/dc/elements/1.1/"><title
   id="title258">eduroam usizo</title><sodipodi:namedview
   id="namedview23"
   pagecolor="#000000"
   bordercolor="#666666"
   borderopacity="1.0"
   inkscape:showpageshadow="2"
   inkscape:pageopacity="1"
   inkscape:pagecheckerboard="true"
   inkscape:deskcolor="#d1d1d1"
   showgrid="false"
   inkscape:zoom="0.71354167"
   inkscape:cx="960"
   inkscape:cy="518.54014"
   inkscape:window-width="1920"
   inkscape:window-height="1017"
   inkscape:window-x="1912"
   inkscape:window-y="-8"
   inkscape:window-maximized="1"
   inkscape:current-layer="Layer_1" /><metadata
   id="metadata43"><rdf:RDF><cc:Work
       rdf:about=""><dc:format>image/svg+xml</dc:format><dc:type
         rdf:resource="http://purl.org/dc/dcmitype/StillImage" /><dc:identifier>https://eduroam.ac.za/usizo/</dc:identifier><dc:title>eduroam usizo</dc:title></cc:Work></rdf:RDF></metadata><defs
   id="defs41">
	
	
	
	
	
	
	
	
	
	
	
	
	
</defs>
<g
   id="g5018"><path
     style="clip-rule:evenodd;fill:#cadce8;fill-rule:evenodd;stroke-width:17.3703"
     id="path2"
     d="m 609.31955,618.60284 c -57.53055,0 -115.0611,-12.74982 -158.86908,-38.26684 -65.79883,-38.28422 -82.24854,-94.45989 -49.36649,-141.68983 l 15.54645,-17.17926 93.19184,3.96044 h 1.26804 l -17.07504,13.46201 c -34.70593,33.71582 -28.92161,79.64298 17.31822,109.32889 26.42028,16.97081 61.10884,25.46491 95.78003,25.46491 34.65382,0 69.32501,-8.4941 95.74529,-25.46491 46.23983,-29.68591 52.02415,-75.61307 17.35296,-109.32889 l -16.32811,-12.85405 43.82535,-0.60796 55.75878,-2.37974 14.10471,15.59856 c 32.89941,47.22994 16.43234,103.40561 -49.33175,141.68983 -43.8601,25.51702 -101.40802,38.26684 -158.9212,38.26684" /><g
     id="g8"
     transform="matrix(17.370335,0,0,17.370335,178.3268,235.77803)">
		<path
   style="clip-rule:evenodd;fill:#cadce8;fill-rule:evenodd"
   id="path4"
   d="m 46.617,10.576 -0.275,-0.449 -0.497,0.051 -4.556,0.325 0.571,0.925 c 1.8,3.444 0.3,7.324 -4.499,10.042 -1.314,0.744 -2.784,1.346 -4.35,1.81 h 8.19 c 5.866,-3.481 7.675,-8.361 5.416,-12.704" />
		<path
   style="clip-rule:evenodd;fill:#cadce8;fill-rule:evenodd"
   id="path6"
   d="m 8.18,23.281 h 8.241 C 14.857,22.816 13.387,22.214 12.072,21.469 6.836,18.505 5.528,14.157 8.145,10.5 L 8.278,10.338 6.014,10.177 3.185,9.89 2.765,10.577 C 0.506,14.92 2.312,19.801 8.18,23.281" />
	</g><path
     style="clip-rule:evenodd;fill:#cadce8;fill-rule:evenodd;stroke-width:17.3703"
     id="path10"
     d="m 1004.3383,640.14206 h 102.954 c 79.0177,-74.13659 96.7875,-162.41263 53.1706,-242.85466 l -3.613,-5.64535 -75.2309,10.07479 -14.3653,1.45911 8.1814,12.43716 c 41.7062,75.23092 17.9609,158.53905 -71.0968,224.52895" /><path
     style="clip-rule:evenodd;fill:#cadce8;fill-rule:evenodd;stroke-width:17.3703"
     id="path12"
     d="m 1201.509,640.14206 h 96.527 c 68.4912,-84.81935 78.4444,-179.85245 29.6164,-267.60738 l -6.1491,-9.32787 -42.2273,8.75465 -43.4779,7.33028 6.5659,9.91846 c 46.3267,82.63068 32.6389,172.62639 -40.855,250.93186" /><g
     id="g18"
     transform="matrix(17.370335,0,0,17.370335,178.3268,235.77803)">
		<path
   style="clip-rule:evenodd;fill:#cadce8;fill-rule:evenodd"
   id="path14"
   d="m 69.846,23.279 h 5.616 c 3.43,-5.423 3.641,-11.305 0.622,-16.783 l -0.965,-1.48 -1.822,0.557 -3.001,0.756 0.687,1.054 c 2.869,5.198 2.486,10.804 -1.137,15.896" />
		<path
   style="clip-rule:evenodd;fill:#cadce8;fill-rule:evenodd"
   id="path16"
   d="m 80.726,23.281 h 5.178 C 89.55,16.273 88.812,8.745 83.681,1.95 l -0.077,-0.095 -2.124,0.969 -2.133,0.789 1.53,2.322 c 3.151,5.655 3.099,11.705 -0.151,17.346" />
	</g><path
     style="fill:#ffffff;stroke-width:17.3703;fill-opacity:1"
     id="path20"
     d="m 451.66639,762.11655 c -10.37009,33.83741 -47.10835,49.40123 -87.51175,49.40123 -25.04802,0 -49.43597,-4.37732 -68.80389,-18.29096 -18.37782,-13.37516 -28.05309,-32.46516 -27.72306,-52.4063 -0.3474,-18.82944 8.68517,-39.30907 24.71799,-52.66686 17.37033,-14.74741 43.40847,-21.57395 67.79642,-21.57395 56.78362,0 91.52429,30.03331 91.52429,75.89099 v 7.36502 H 337.10903 c 0,15.00797 6.02751,25.91654 26.0555,25.91654 15.02534,0 23.38048,-4.89843 26.05551,-16.9187 l 62.44635,3.28299 m -66.78894,-39.58699 c 0,-13.65309 -5.35006,-24.00581 -24.05791,-24.00581 -17.37034,0 -23.71051,11.1865 -23.71051,24.00581 z" /><path
     style="fill:#ffffff;stroke-width:17.3703;fill-opacity:1"
     id="path22"
     d="m 574.23148,537.22282 v 143.58319 c -10.35272,-8.45935 -24.37058,-14.20893 -40.75081,-14.20893 -51.43356,0 -68.12645,37.39833 -68.12645,73.14648 0,34.39326 17.02292,71.79159 66.12886,71.79159 21.36551,0 35.74815,-6.01013 45.42343,-21.29603 h 0.66007 v 18.55152 h 62.81113 v -269.935 c -19.42003,15.39011 -47.33416,14.85163 -66.14623,-1.63282 m -3.99518,230.8865 c -3.66514,4.65525 -8.00773,7.08709 -14.69531,7.08709 -20.70543,0 -21.71291,-21.83451 -21.71291,-34.11533 0,-7.64295 1.33751,-18.29097 3.3351,-25.93392 1.99759,-8.44198 7.00025,-14.73004 18.69048,-14.73004 5.36743,0 11.3602,1.89337 14.36527,5.45429 4.34258,4.35995 3.99517,10.92594 3.99517,16.36285 v 28.1052 c 0.0174,6.86129 0.69482,11.77709 -3.9778,17.76986 z" /><path
     style="fill:#ffffff;stroke-width:17.3703;fill-opacity:1"
     id="path24"
     d="M 770.95052,808.77327 V 785.8618 h -0.66007 c -7.01762,18.01304 -29.73802,25.65598 -51.7636,25.65598 -14.03523,0 -27.72306,-2.72714 -38.07578,-10.64801 -12.02027,-9.79687 -13.35778,-22.0777 -13.35778,-35.17493 v -96.35325 h 66.12886 v 84.31561 c 0,9.0152 -0.34741,18.55152 14.6953,18.55152 6.68758,0 13.02776,-3.00507 16.05019,-7.90351 3.00507,-4.65525 3.31774,-9.55368 3.31774,-14.74741 v -80.23358 h 66.14623 v 139.44905 h -62.48109" /><path
     style="clip-rule:evenodd;fill:#00658a;fill-rule:evenodd;stroke-width:17.3703"
     id="path26"
     d="m 924.24373,697.9679 c 5.6801,-19.36792 18.0304,-33.021 44.43331,-31.40556 l 9.01521,0.55585 v 48.84538 c -3.99518,-0.83378 -8.33776,-1.37226 -12.68035,-1.37226 -10.68275,0 -21.71292,1.65019 -27.04561,9.57106 -4.68999,6.82654 -4.68999,15.82437 -4.68999,24.02317 V 808.7559 H 867.13006 V 669.30685 h 56.45359 v 28.64368 h 0.66008" /><path
     style="clip-rule:evenodd;fill:#00658a;fill-rule:evenodd;stroke-width:17.3703"
     id="path28"
     d="m 1175.0714,740.28204 c 0,42.29677 -41.741,71.23574 -93.8346,71.23574 -52.111,0 -93.85191,-28.93897 -93.85191,-71.23574 0,-44.76335 40.42081,-73.70233 93.85191,-73.70233 53.4312,0 93.8346,28.93898 93.8346,73.70233 M 1058.169,738.3713 c 0,37.38096 11.0302,40.14285 23.0504,40.14285 12.0029,0 23.0331,-2.74452 23.0331,-40.14285 0,-13.37516 -0.3474,-37.65888 -23.0331,-37.65888 -22.703,0 -23.0504,24.28372 -23.0504,37.65888 z" /><path
     style="clip-rule:evenodd;fill:#00658a;fill-rule:evenodd;stroke-width:17.3703"
     id="path30"
     d="m 1305.3315,808.77327 c -1.6849,-6.25332 -2.345,-12.81931 -2.345,-19.36792 -13.3751,16.1023 -32.3957,22.09506 -55.7761,22.09506 -31.7356,0 -59.4587,-14.17419 -59.4587,-42.03621 0,-22.07769 21.0355,-36.84248 44.7634,-42.85261 21.6955,-5.45429 44.7459,-7.62558 67.1189,-8.71991 v -1.07696 c 0,-12.57613 -3.9951,-17.47456 -20.028,-17.47456 -13.0277,0 -24.0579,3.8041 -26.0555,15.54645 l -60.7961,-4.63788 c 10.0226,-34.65382 50.4434,-43.68639 88.8492,-43.68639 20.028,0 45.7535,2.20603 62.4464,12.02027 22.3903,12.81931 19.7153,30.83234 19.7153,50.77349 v 48.84538 c 0,10.37009 0.3474,20.74018 5.3501,30.57179 h -63.7839 m -5.6801,-65.22561 c -16.0328,1.35489 -42.7484,5.45429 -42.7484,22.39036 0,8.99784 7.0003,12.81931 17.3703,12.81931 25.0307,0 25.3781,-17.19663 25.3781,-32.48252 z" /><path
     style="clip-rule:evenodd;fill:#00658a;fill-rule:evenodd;stroke-width:17.3703"
     id="path32"
     d="m 1449.6095,669.32422 v 18.82944 h 0.6601 c 9.3626,-14.19156 26.4029,-21.57395 46.4309,-21.57395 21.0528,0 37.7457,6.56598 48.1158,21.57395 11.6902,-15.56382 28.7132,-21.57395 51.0862,-21.57395 14.3479,0 29.7206,3.56092 39.7433,12.02027 12.3677,10.37009 12.3677,24.02317 12.3677,38.75322 v 91.42007 h -64.7914 v -83.77713 c 0,-9.0152 1.3202,-19.10736 -14.0352,-19.10736 -18.7079,0 -18.0304,14.17419 -18.0304,25.37806 v 77.50643 h -64.7914 v -83.77713 c 0,-8.73727 -0.66,-19.92377 -15.0253,-19.92377 -15.7028,0 -17.0229,9.55368 -17.0229,19.92377 v 83.77713 h -64.7914 V 669.32422 h 60.084" /><path
     style="clip-rule:evenodd;fill:#ffffff;fill-rule:evenodd;stroke-width:17.3703;fill-opacity:1"
     id="path34"
     d="m 638.93597,524.83777 c -16.90133,16.90134 -44.34646,16.90134 -61.23043,0 -16.88396,-16.90133 -16.90133,-44.34646 0,-61.23043 16.90134,-16.88396 44.34647,-16.90133 61.23043,0 16.90134,16.88397 16.90134,44.3291 0,61.23043" /></g>
<text
   xml:space="preserve"
   style="font-style:italic;font-variant:normal;font-weight:normal;font-stretch:normal;font-size:10.6667px;line-height:125%;font-family:'Franklin Gothic Book';-inkscape-font-specification:'Franklin Gothic Book, Italic';letter-spacing:0px;word-spacing:0px;fill:#000000;fill-opacity:1;stroke:#000000;stroke-width:1px;stroke-linecap:butt;stroke-linejoin:miter;stroke-opacity:1"
   x="650.27734"
   y="839.47443"
   id="text5098"><tspan
     sodipodi:role="line"
     id="tspan5096"
     x="650.27734"
     y="839.47443" /></text><path
   d="m 1388.526,859.75934 -13.2812,79.21875 h -10.625 l 3.2031,-19.14063 q -10.5469,21.25 -28.8281,21.25 -7.1094,0 -12.2657,-3.28125 -5.0781,-3.35937 -7.3437,-7.89062 -2.2656,-4.53125 -2.2656,-11.40625 0,-4.45313 1.7187,-14.45313 l 7.5781,-44.29687 h 12.1875 l -8.0468,48.125 q -1.4063,8.20312 -1.4063,10.07812 0,6.17188 3.5938,9.6875 3.5937,3.4375 9.4531,3.4375 9.8437,0 18.2031,-10.70312 8.3594,-10.78125 11.6406,-30.23438 l 5.0782,-30.39062 z"
   style="font-style:italic;font-weight:bold;font-size:160px;line-height:125%;font-family:'Franklin Gothic Book';-inkscape-font-specification:'Franklin Gothic Book,  Italic';letter-spacing:0px;word-spacing:0px;fill:#e03c31;stroke:#808080;stroke-width:1px;fill-opacity:1"
   id="path8921" /><path
   d="m 1460.7135,876.79059 -10.1562,4.29687 q -5.2344,-13.28125 -20.7813,-13.28125 -7.1094,0 -11.4062,3.67188 -4.2969,3.59375 -4.2969,8.59375 0,5.07812 3.2812,7.5 3.3594,2.34375 13.0469,4.53125 l 4.9219,1.17187 q 8.2812,1.875 12.8125,4.14063 4.5312,2.1875 7.6562,7.10937 3.125,4.84375 3.125,11.09375 0,10.54688 -8.3593,17.96875 -8.2813,7.42188 -22.6563,7.42188 -10.3125,0 -19.375,-3.98438 -8.9844,-3.98437 -15.4687,-17.57812 l 11.3281,-3.82813 q 5.625,15.625 23.9062,15.625 8.75,0 13.5157,-3.90625 4.8437,-3.90625 4.8437,-9.76562 0,-4.60938 -2.8906,-7.26563 -2.8125,-2.73437 -12.6563,-5.07812 l -4.1406,-1.01563 q -9.1406,-2.1875 -14.0625,-4.45312 -4.8437,-2.34375 -8.125,-7.03125 -3.2812,-4.6875 -3.2812,-10.70313 0,-9.84375 7.5781,-16.79687 7.6562,-7.03125 20.8594,-7.03125 23.8281,0 30.7812,18.59375 z"
   style="font-style:italic;font-weight:bold;font-size:160px;line-height:125%;font-family:'Franklin Gothic Book';-inkscape-font-specification:'Franklin Gothic Book,  Italic';letter-spacing:0px;word-spacing:0px;fill:#007749;stroke:#808080;stroke-width:1px;fill-opacity:1"
   id="path8923" /><path
   d="m 1502.9791,846.79059 h -15.8593 l 2.4218,-14.45313 h 15.8594 z m -17.4218,92.1875 h -12.2657 l 13.2813,-79.21875 h 12.2656 z"
   style="font-style:italic;font-weight:bold;font-size:160px;line-height:125%;font-family:'Franklin Gothic Book';-inkscape-font-specification:'Franklin Gothic Book,  Italic';letter-spacing:0px;word-spacing:0px;fill:#ffffff;stroke:#808080;stroke-width:1px;fill-opacity:1"
   id="path8925" /><path
   d="m 1561.5729,938.97809 h -60.1563 l 1.4063,-8.35938 52.1875,-60.85937 h -40.5469 l 1.7188,-10 h 56.875 l -1.4063,8.04687 -52.7344,61.25 h 44.2969 z"
   style="font-style:italic;font-weight:bold;font-size:160px;line-height:125%;font-family:'Franklin Gothic Book';-inkscape-font-specification:'Franklin Gothic Book,  Italic';letter-spacing:0px;word-spacing:0px;fill:#001489;stroke:#808080;stroke-width:1px;fill-opacity:1"
   id="path8927" /><path
   d="m 1609.151,941.32184 q -14.7656,0 -23.2812,-10.23438 -8.5157,-10.3125 -8.5157,-26.32812 0,-18.125 11.1719,-32.5 11.1719,-14.375 28.6719,-14.375 14.4531,0 23.0469,9.92187 8.5937,9.84375 8.5937,26.875 0,17.65625 -11.0156,32.1875 -11.0156,14.45313 -28.6719,14.45313 z m 0.5469,-9.84375 q 12.5781,0 19.375,-12.42188 6.7969,-12.42187 6.7969,-28.51562 0,-12.1875 -5.7813,-17.57813 -5.7031,-5.46875 -13.5937,-5.46875 -12.4219,0 -19.2188,12.34375 -6.7969,12.34375 -6.7969,27.73438 0,11.79687 5.2344,17.89062 5.2344,6.01563 13.9844,6.01563 z"
   style="font-style:italic;font-weight:bold;font-size:160px;line-height:125%;font-family:'Franklin Gothic Book';-inkscape-font-specification:'Franklin Gothic Book,  Italic';letter-spacing:0px;word-spacing:0px;fill:#ffb81c;stroke:#808080;stroke-width:1px;fill-opacity:1"
   id="path8929" /></svg>
